<svg xmlns="http://www.w3.org/2000/svg" viewBox="0 0 64 64" xml:space="preserve"><path fill="#C80A50" d="M10 34h4v20h-4z"/><path fill="#DC9600" d="M16 16h2.131a1 1 0 0 0 .832-1.555l-6.131-9.197a1 1 0 0 0-1.664 0l-6.131 9.197A1 1 0 0 0 5.869 16H8l-2.964 4.445A1 1 0 0 0 5.869 22H8l-2.964 4.445A1 1 0 0 0 5.869 28H8l-2.964 4.445A1 1 0 0 0 5.869 34h12.263a1 1 0 0 0 .832-1.555L16 28h2.131a1 1 0 0 0 .832-1.555L16 22h2.131a1 1 0 0 0 .832-1.555L16 16z"/><path fill="#BE7800" d="M18.131 34a1 1 0 0 0 .832-1.555L16 28h2.131a1 1 0 0 0 .832-1.555L16 22h2.131a1 1 0 0 0 .832-1.555L16 16h2.131a1 1 0 0 0 .832-1.555l-2.13-3.195-4.797 7.195A1 1 0 0 0 12.869 20H15l-2.964 4.445A1 1 0 0 0 12.869 26H15l-2.964 4.445A1 1 0 0 0 12.869 32H15l-1.333 2h4.464z"/><path fill="#A00028" d="M10 34h4v1h-4z"/><path fill="#C80A50" d="M18 38h4v16h-4z"/><path fill="#FAB400" d="M24 20h2.131a1 1 0 0 0 .832-1.555l-6.131-9.197a1 1 0 0 0-1.664 0l-6.131 9.197A1 1 0 0 0 13.869 20H16l-2.964 4.445A1 1 0 0 0 13.869 26H16l-2.964 4.445A1 1 0 0 0 13.869 32H16l-2.964 4.445A1 1 0 0 0 13.869 38h12.263a1 1 0 0 0 .832-1.555L24 32h2.131a1 1 0 0 0 .832-1.555L24 26h2.131a1 1 0 0 0 .832-1.555L24 20z"/><path fill="#DC9600" d="M15.333 21H19.5a.5.5 0 0 0 0-1H16l-.667 1zM15.333 27H19.5a.5.5 0 0 0 0-1H16l-.667 1zM15.333 33H19.5a.5.5 0 0 0 0-1H16l-.667 1z"/><path fill="#C80A50" d="M50 44h4v10h-4z"/><path fill="#FAB400" d="M56 26h2.131a1 1 0 0 0 .832-1.555l-6.131-9.197a1 1 0 0 0-1.664 0l-6.131 9.197A1 1 0 0 0 45.869 26H48l-2.964 4.445A1 1 0 0 0 45.869 32H48l-2.964 4.445A1 1 0 0 0 45.869 38H48l-2.964 4.445A1 1 0 0 0 45.869 44h12.263a1 1 0 0 0 .832-1.555L56 38h2.131a1 1 0 0 0 .832-1.555L56 32h2.131a1 1 0 0 0 .832-1.555L56 26z"/><path fill="#DC9600" d="M47.333 27H51.5a.5.5 0 0 0 0-1H48l-.667 1zM47.333 33H51.5a.5.5 0 0 0 0-1H48l-.667 1zM47.333 39H51.5a.5.5 0 0 0 0-1H48l-.667 1z"/><path fill="#00A0C8" d="M54 44 32 22 10 44v10h44z"/><g><path fill="#0082AA" d="m10 46.414 22-22 22 22V44L32 22 10 44z"/></g><g><path fill="#0A5078" d="M58 49a.997.997 0 0 1-.707-.293L32 23.414 6.707 48.707a.999.999 0 1 1-1.414-1.414l26-26a.999.999 0 0 1 1.414 0l26 26A.999.999 0 0 1 58 49z"/></g><g><path fill="#C80A50" d="M6 55a1 1 0 0 1-1-1v-6a1 1 0 1 1 2 0v6a1 1 0 0 1-1 1z"/></g><g><path fill="#C80A50" d="M58 55a1 1 0 0 1-1-1v-6a1 1 0 1 1 2 0v6a1 1 0 0 1-1 1z"/></g><g><path fill="#FAB400" d="M59 60H5a1 1 0 0 1-1-1v-4a1 1 0 0 1 1-1h54a1 1 0 0 1 1 1v4a1 1 0 0 1-1 1z"/></g><g><path fill="#DC9600" d="M59 56H5a1 1 0 0 1 0-2h54a1 1 0 0 1 0 2z"/></g><g><path fill="#FAB400" d="m32 32 12.772 16.421A.978.978 0 0 1 44 50a4 4 0 0 0-4 4l-8-22z"/></g><g><path fill="#0A5078" d="m32 32-8 22h16z"/></g><g><path fill="#FAB400" d="M32 32 19.228 48.421A.978.978 0 0 0 20 50a4 4 0 0 1 4 4l8-22z"/></g><g><circle fill="#00A0C8" cx="44" cy="8" r="4"/></g></svg>