<svg xmlns="http://www.w3.org/2000/svg" viewBox="0 0 512 512" style="enable-background:new 0 0 512 512" xml:space="preserve"><path style="fill:#f9f1ef" d="M504.48 441.994V157.278c0-19.198-15.562-34.76-34.759-34.762H42.282c-19.199 0-34.762 15.563-34.762 34.762v284.716c0 19.198 15.563 34.762 34.762 34.762h427.435c19.2 0 34.763-15.564 34.763-34.762z"/><path style="fill:#dddbdb" d="M469.721 122.515h-30.08c19.197.002 34.759 15.564 34.759 34.762v284.716c0 19.198-15.563 34.762-34.762 34.762h30.08c19.199 0 34.762-15.563 34.762-34.762V157.278c0-19.198-15.562-34.761-34.759-34.763z"/><path style="fill:#f2ca5a" d="M413.484 300.426c-13.886 0-25.143-11.257-25.143-25.143v-54.244h50.285v54.244c.001 13.887-11.256 25.143-25.142 25.143z"/><path style="fill:#565656" d="M347.843 35.244H164.157c-19.469 0-35.252 15.152-35.252 33.842v53.429h41.331v-50.48h171.529v50.481h41.331V69.087c-.001-18.691-15.783-33.843-35.253-33.843z"/><path style="fill:#494949" d="M347.843 35.244h-30.08c19.469 0 35.252 15.152 35.252 33.842v53.429h30.08V69.087c0-18.691-15.782-33.843-35.252-33.843z"/><path style="fill:#ef3a47" d="M469.721 122.515H42.282c-19.199 0-34.762 15.563-34.762 34.762v96.135h65.853v-32.33h50.285v32.33h264.684v-32.33h50.285v32.33h65.853v-96.135c0-19.197-15.562-34.76-34.759-34.762z"/><path style="fill:#ce3043" d="M469.721 122.515h-30.08c19.197.002 34.759 15.564 34.759 34.762v96.135h30.08v-96.135c0-19.197-15.562-34.76-34.759-34.762z"/><path style="fill:#ef3a47" d="M311.237 335.756h-31.111v-31.111a8.653 8.653 0 0 0-8.654-8.654h-30.943a8.653 8.653 0 0 0-8.654 8.654v31.111h-31.112a8.653 8.653 0 0 0-8.654 8.654v30.943a8.653 8.653 0 0 0 8.654 8.654h31.111v31.111a8.653 8.653 0 0 0 8.654 8.654h30.943a8.653 8.653 0 0 0 8.654-8.654v-31.111h31.111a8.653 8.653 0 0 0 8.654-8.654V344.41a8.653 8.653 0 0 0-8.653-8.654z"/><path style="fill:#f2ca5a" d="M98.516 300.443c-13.886 0-25.143-11.257-25.143-25.143v-54.244h50.285V275.3c-.001 13.886-11.256 25.143-25.142 25.143z"/><path style="fill:#ffae47" d="M103.604 221.056V275.3c0 10.32-6.222 19.185-15.116 23.058a25.045 25.045 0 0 0 10.027 2.085c13.886 0 25.143-11.257 25.143-25.143v-54.244h-20.054zM418.574 221.056V275.3c0 10.32-6.222 19.185-15.116 23.058a25.049 25.049 0 0 0 10.027 2.085c13.886 0 25.143-11.257 25.143-25.143v-54.244h-20.054z"/><path d="M240.529 431.292h30.942c8.92 0 16.175-7.255 16.175-16.174v-23.591h23.59c8.92 0 16.175-7.255 16.175-16.174V344.41c0-8.919-7.255-16.174-16.175-16.174h-23.59v-23.591c0-8.919-7.255-16.174-16.175-16.174h-30.942c-8.919 0-16.174 7.255-16.174 16.174v23.591h-23.592c-8.919 0-16.174 7.255-16.174 16.174v30.943c0 8.919 7.255 16.174 16.174 16.174h23.591v23.591c0 8.918 7.256 16.174 16.175 16.174zm-39.766-54.805a1.134 1.134 0 0 1-1.134-1.134V344.41c0-.626.508-1.134 1.134-1.134h31.111a7.52 7.52 0 0 0 7.52-7.52v-31.111c0-.626.508-1.134 1.134-1.134h30.942c.626 0 1.135.508 1.135 1.134v31.111a7.519 7.519 0 0 0 7.52 7.52h31.11c.626 0 1.135.508 1.135 1.134v30.943c0 .626-.509 1.134-1.135 1.134h-31.11a7.519 7.519 0 0 0-7.52 7.52v31.111c0 .626-.509 1.134-1.135 1.134h-30.942a1.134 1.134 0 0 1-1.134-1.134v-31.111a7.52 7.52 0 0 0-7.52-7.52h-31.111z"/><path d="M469.721 114.995h-79.106V69.087c0-22.808-19.188-41.363-42.772-41.363H164.157c-23.585 0-42.772 18.555-42.772 41.363v45.909H42.282C18.967 114.995 0 133.963 0 157.278v284.716c0 23.315 18.967 42.282 42.282 42.282h280.764a7.519 7.519 0 0 0 7.52-7.52 7.52 7.52 0 0 0-7.52-7.52H42.282c-15.021 0-27.242-12.22-27.242-27.242V260.933h50.813V275.3c0 18.011 14.652 32.663 32.663 32.663s32.663-14.652 32.663-32.663v-14.367h43.004c4.153 0 7.52-3.366 7.52-7.52s-3.367-7.52-7.52-7.52h-43.004v-24.836a7.52 7.52 0 0 0-7.52-7.52H73.373a7.52 7.52 0 0 0-7.52 7.52v24.836H15.04v-88.615c0-15.021 12.22-27.242 27.242-27.242h427.439c15.02.002 27.24 12.221 27.24 27.242v88.615h-50.813V221.04a7.52 7.52 0 0 0-7.52-7.52h-50.285a7.52 7.52 0 0 0-7.52 7.52V245.893h-176.56c-4.153 0-7.52 3.366-7.52 7.52s3.367 7.52 7.52 7.52h176.56v14.352c0 18.01 14.652 32.662 32.662 32.662 18.011 0 32.663-14.652 32.663-32.662v-14.352h50.813v181.061c0 15.022-12.22 27.242-27.242 27.242H353.127a7.52 7.52 0 0 0-7.52 7.52 7.519 7.519 0 0 0 7.52 7.52h116.591c23.315 0 42.282-18.967 42.282-42.282V157.278c0-23.312-18.966-42.281-42.279-42.283zM116.138 275.3c0 9.717-7.905 17.623-17.623 17.623-9.717 0-17.623-7.906-17.623-17.623v-46.697h35.245V275.3h.001zm233.147-160.305V72.034a7.519 7.519 0 0 0-7.52-7.52h-36.419a7.519 7.519 0 0 0-7.52 7.52 7.52 7.52 0 0 0 7.52 7.52h28.899v35.441h-156.49V79.554h97.511a7.52 7.52 0 0 0 7.52-7.52 7.519 7.519 0 0 0-7.52-7.52H170.235a7.52 7.52 0 0 0-7.52 7.52v42.961h-26.291V69.087c0-14.515 12.44-26.323 27.732-26.323h183.686c15.292 0 27.732 11.808 27.732 26.323v45.909h-26.289zm81.822 160.289c0 9.717-7.906 17.622-17.623 17.622-9.717 0-17.622-7.905-17.622-17.622v-46.681h35.245v46.681z"/></svg>