<svg width="335.000000" height="266.000000" viewBox="0 0 335 266" fill="none" xmlns="http://www.w3.org/2000/svg" xmlns:xlink="http://www.w3.org/1999/xlink">
	<desc>
			Created with Pixso.
	</desc>
	<defs/>
	<g opacity="0.104143">
		<ellipse id="Oval" cx="163.000000" cy="258.000000" rx="81.000000" ry="8.000000" fill="#B3E5FC" fill-opacity="1.000000"/>
		<ellipse id="Oval" cx="163.000000" cy="258.000000" rx="81.000000" ry="8.000000" stroke="#979797" stroke-opacity="0" stroke-width="0.000000"/>
		<path id="Path" d="M65.8315 176.621C27.1695 160.963 10.45 143.74 0 138C30.8246 195.933 113.897 272.132 144.723 243.948C153.084 236.641 119.645 198.543 65.8315 176.621Z" fill="#03ACF2" fill-opacity="1.000000" fill-rule="evenodd"/>
		<path id="Path" d="M147.02 244.755C147.544 248.94 205.056 244.755 223.879 197.684C239.041 161.074 251.066 155.844 261 148C186.234 159.506 145.974 234.294 147.02 244.755Z" fill="#B3E5FC" fill-opacity="1.000000" fill-rule="evenodd"/>
		<path id="Path" d="M283.761 0.280029C281.742 -0.395996 279.053 0.280029 277.034 0.955811C256.854 7.7041 237.349 29.9712 242.729 53.5898C239.365 61.0115 237.347 68.4355 235.331 77.2061C235.331 70.4578 234.657 62.3606 229.277 56.9614C222.551 50.2131 217.842 54.9365 217.842 61.6846C217.842 68.4329 221.206 69.782 225.914 75.1812C229.951 79.231 231.967 83.9543 233.986 85.3035C233.312 88.0017 233.312 90.7026 232.641 93.4009C231.967 97.4507 231.296 101.498 230.622 105.548C229.949 103.523 229.949 101.498 229.949 100.825C227.93 92.7275 225.911 83.281 219.187 75.8569C212.46 69.1089 203.717 69.7847 203.044 77.8821C202.37 84.6301 211.789 88.6775 217.842 93.4009C224.569 98.7998 227.259 103.523 230.622 107.571C229.277 114.319 227.933 121.067 226.585 127.815C225.911 119.718 222.548 110.271 219.187 104.872C212.46 95.4258 204.389 102.174 203.044 108.922C201.699 116.344 208.426 121.743 213.805 127.142C217.842 131.192 221.877 136.588 223.895 139.289C223.222 142.663 221.877 146.038 221.206 149.412C220.532 152.11 219.861 154.811 219.187 157.509C217.842 150.761 214.479 144.012 210.442 139.289C207.752 136.591 203.715 130.516 199.68 131.192C194.298 131.192 194.298 137.94 195.643 141.988C199.007 151.434 211.787 158.858 216.495 166.955C214.476 173.704 212.458 179.776 209.768 186.524C209.768 179.103 206.405 170.33 204.386 165.606C202.367 161.556 198.333 156.833 193.625 156.16C188.243 155.484 186.227 160.883 187.571 165.606C188.916 170.33 192.28 175.053 195.643 179.103C199.007 183.826 202.37 190.574 206.405 194.622C205.06 197.32 203.715 200.694 203.041 203.395C203.041 204.071 202.367 204.744 202.367 204.744C201.694 202.719 201.023 200.694 201.023 199.345C199.678 194.622 197.659 189.898 192.951 187.198C188.243 184.497 182.189 183.823 180.842 187.198C179.497 189.896 181.516 194.619 184.205 197.993C186.895 201.367 190.932 203.392 194.296 206.766C196.314 208.792 197.659 210.816 199.004 212.839C195.641 219.587 192.277 225.659 188.914 231.732C187.569 226.333 183.532 217.562 182.187 215.537C180.168 212.163 176.805 208.789 172.77 207.44C168.733 206.091 164.698 206.764 163.354 209.465C162.009 212.839 164.698 216.886 168.062 219.587C170.081 221.612 182.187 233.757 186.224 235.782C182.861 241.854 179.497 247.929 176.134 254.001C174.789 256.026 178.823 259.4 180.171 257.375C186.224 250.627 190.932 243.206 195.641 235.108C198.33 235.784 201.694 234.433 204.386 235.108C209.094 236.458 214.476 238.482 219.185 239.832C223.893 240.508 229.275 239.832 230.62 235.108C230.62 233.759 230.62 232.41 229.946 231.058C227.927 227.009 222.548 224.986 218.511 224.986C211.784 224.31 204.386 225.662 198.33 228.36C201.02 222.961 203.712 217.564 205.728 212.841C206.402 212.841 207.073 212.166 207.073 212.166C209.763 210.816 212.455 209.467 215.819 209.467C218.508 209.467 221.201 210.143 223.89 210.816C227.927 211.492 231.288 212.166 234.652 212.166C238.689 212.166 242.724 211.49 244.742 208.792C246.761 206.093 246.761 201.37 243.397 198.669C241.379 196.644 238.015 195.971 235.326 195.971C227.254 195.295 219.856 197.996 214.474 202.043C211.784 204.068 209.766 206.093 207.747 208.115C210.437 201.367 213.129 194.619 215.819 187.198C218.508 186.522 221.872 185.848 225.235 185.848C229.944 185.848 233.981 185.848 238.689 186.524C242.726 186.524 247.434 186.524 250.798 185.848C256.851 183.823 260.888 179.1 260.888 173.701C260.888 171.676 260.888 168.302 258.87 166.953C256.18 164.928 252.816 164.255 250.124 164.928C241.379 165.604 233.981 168.302 227.254 172.349C225.235 173.698 221.872 176.399 218.508 179.098C220.527 172.349 222.545 166.277 224.562 159.529C230.615 155.479 237.342 152.107 246.087 150.756C250.795 150.08 256.177 150.08 260.886 149.406C265.594 148.731 270.302 147.382 272.995 144.007C275.013 141.309 275.684 136.586 272.321 133.885C271.647 133.209 270.302 132.536 268.957 131.86C260.212 127.81 252.14 131.184 246.087 135.91C240.034 140.633 231.288 147.382 226.58 154.803C228.599 146.03 230.617 137.932 232.633 129.162C236.67 126.464 242.724 125.788 247.432 125.112C256.177 123.763 265.594 123.763 273.666 121.062C279.048 119.037 283.756 116.339 285.101 111.615C285.101 110.94 285.774 110.266 285.101 108.917C284.427 107.568 282.411 106.219 281.064 105.543C277.027 103.518 272.318 103.518 268.284 104.194C258.193 105.543 249.45 110.266 242.05 116.341C238.686 119.715 235.323 123.089 232.633 126.464C234.652 118.366 235.997 109.593 237.342 100.822C237.342 100.146 237.342 99.4731 237.342 98.7974C243.395 98.7974 249.45 97.4482 255.504 97.4482C261.557 96.7725 267.612 96.0991 270.973 92.0491C271.647 90.7 272.318 88.675 272.318 87.3259C271.645 83.9517 268.281 81.2534 264.92 79.9043C261.557 78.5552 258.193 79.2285 255.504 79.9043C251.466 80.5803 244.742 84.6277 239.36 88.6775C240.034 83.9543 240.705 78.5552 241.379 73.832C250.124 71.8071 259.541 73.1562 267.612 70.4578C274.339 68.4329 279.048 64.3855 281.066 58.3105C281.74 56.9614 281.74 54.2607 280.392 52.9114C279.048 51.5623 277.029 50.8865 275.684 50.8865C266.939 50.2107 258.867 52.9114 252.814 56.959C250.795 58.3081 244.742 62.3579 242.052 66.4053C244.071 58.3081 246.761 50.8865 251.469 44.1382C254.832 40.7642 258.196 37.3901 262.23 35.365C267.612 32.6667 272.992 29.9661 277.7 26.5918C282.409 23.2178 286.446 18.4946 287.791 13.0955C290.488 8.3772 288.469 2.30493 283.761 0.280029Z" fill="#F8BBD0" fill-opacity="1.000000" fill-rule="evenodd"/>
		<path id="Path" d="M135.742 136.47C134.162 122.807 108.896 73.9341 101 65C114.685 110.721 95.2107 102.838 105.737 180.09C108.896 203.213 125.214 240 138.899 240C151.532 240 152.059 223.183 154.164 217.403C158.901 201.636 153.637 98.1104 147.847 88.6499C139.426 107.567 136.794 133.316 135.742 136.47Z" fill="#4CAF50" fill-opacity="1.000000" fill-rule="evenodd"/>
		<path id="Path" d="M174.989 121C170.332 127.797 168.261 136.162 163.604 142.959C159.983 148.188 160.499 155.506 157.395 160.735C154.808 166.485 149.633 169.099 149.117 176.942C149.117 180.601 150.151 183.739 149.635 186.875C149.117 191.058 147.566 194.718 147.566 199.423C147.566 202.56 148.6 205.696 148.6 208.31C148.6 216.675 135.664 230.27 146.013 237.588C145.495 244.386 146.531 247 150.153 247C157.915 247 157.397 239.157 158.95 234.976C160.503 229.748 166.194 226.612 166.712 219.814C167.23 216.155 165.159 211.972 165.159 208.836C165.677 206.222 167.747 205.177 168.781 203.086C171.887 197.857 172.403 191.584 171.887 185.834C171.887 182.174 168.781 176.946 169.299 173.81C170.334 167.536 176.027 165.967 174.474 157.603C173.956 154.989 171.887 151.853 171.887 149.239C171.887 146.625 173.956 144.534 174.474 142.441C177.576 135.116 174.989 127.797 174.989 121L174.989 121Z" fill="#01579B" fill-opacity="1.000000" fill-rule="evenodd"/>
		<path id="Path" d="M149.773 202.721C142.921 205.354 137.125 215.356 135.543 224.833C133.962 220.095 131.854 215.883 130.273 211.146C133.436 204.828 141.867 202.196 144.503 194.298C147.138 185.876 139.232 181.664 133.436 188.508C130.801 191.668 129.219 199.563 128.693 205.355C127.64 202.196 126.058 197.458 125.004 194.3C123.951 191.668 122.897 188.51 121.841 185.878C126.058 180.088 137.653 175.348 135.017 165.346C132.91 158.501 125.004 156.923 121.841 164.293C120.26 167.978 119.206 173.77 119.206 179.033C117.099 173.768 114.989 168.503 112.354 163.766C116.571 156.396 130.799 151.658 129.745 141.654C128.691 133.231 118.678 135.864 114.989 141.654C111.3 147.444 111.3 154.816 111.3 162.186C109.193 158.501 107.611 154.816 105.504 151.131C108.139 144.286 116.045 137.443 114.991 129.019C113.41 120.596 103.925 115.331 100.236 125.859C98.1282 131.649 99.1819 137.967 101.289 144.284C98.6541 140.599 96.0189 136.387 93.3836 132.702C93.3836 130.069 93.3836 126.384 94.4373 122.699C95.491 118.487 97.0725 113.75 94.9651 110.064C91.2762 103.22 87.0594 109.012 87.0594 114.802C86.5316 119.014 88.1132 123.225 89.6947 127.964C86.5316 123.752 81.2632 117.962 78.1001 114.277C77.5723 105.854 89.6947 83.7422 75.9927 88.4797C69.6686 90.585 72.3038 104.274 75.4648 111.644C73.3575 109.539 68.6129 104.8 68.087 104.8C67.5592 97.9548 70.1944 74.7922 60.7092 77.4246C53.3313 79.5298 58.6017 91.6394 61.7629 97.4297C62.2906 97.9568 62.8165 99.0095 63.3444 100.589C60.1813 97.4297 56.4924 94.7991 53.3313 92.1667C53.8591 89.5342 54.385 85.8491 53.8591 82.1643C53.8591 79.5317 51.7518 69.002 47.0071 75.3196C45.4256 77.4246 47.0071 84.7966 49.6424 89.5342C47.0071 87.4292 44.3719 85.8491 41.7367 84.2693C24.8716 69.5293 23.2921 42.1523 10.116 50.5769C-5.69543 60.5793 5.37335 72.1619 11.6974 75.8467C16.968 79.0066 26.981 82.6914 37.522 83.7441C40.1572 85.8491 51.7518 94.7991 52.8055 96.3789C42.2645 91.114 21.7125 80.5845 20.131 91.6414C18.5494 101.644 44.8998 97.4316 54.9149 98.4861C59.1316 102.171 69.1447 112.174 70.1984 113.226C65.4557 111.121 60.7111 106.909 55.4427 106.381C50.7001 105.854 41.7407 107.961 43.8481 113.226C47.0111 121.124 58.6038 116.911 64.9279 116.386C69.1447 115.859 71.7799 116.913 72.8336 115.859C77.5762 121.124 82.3208 126.388 86.5356 132.178C79.1577 126.388 59.6575 115.331 57.55 126.914C54.9149 141.654 77.5762 132.178 87.5893 133.758C91.806 139.549 96.0209 145.866 99.7098 151.658C94.4393 146.921 89.6967 141.656 82.3188 139.023C75.4669 136.918 65.9816 138.496 70.1984 148.5C73.3615 155.87 86.5356 151.66 93.9135 152.713C97.0765 153.24 99.7098 154.292 101.819 154.818C104.982 160.608 108.143 166.926 110.779 173.243C96.5486 168.505 78.1041 146.393 73.8873 161.661C70.1984 175.348 96.0228 166.926 111.832 175.348C114.467 181.138 116.575 186.93 118.684 192.72C115.521 188.508 111.306 185.351 107.09 182.191C103.927 179.558 91.2783 174.293 90.2245 182.718C89.1708 191.141 104.454 191.668 109.197 192.195C113.94 192.722 117.103 194.3 120.264 196.933C120.792 197.985 125.006 211.673 127.116 217.465C120.264 209.042 83.9003 183.245 83.3745 206.41C82.8467 221.15 110.779 212.728 118.684 214.307C123.955 215.36 126.59 217.467 128.171 220.097C129.225 223.257 130.807 226.415 131.86 229.575C122.901 222.73 102.875 211.15 101.821 226.942C100.24 245.367 120.266 232.207 125.01 232.732C129.227 233.26 133.97 232.732 135.551 237.47C137.133 241.155 139.24 244.84 141.875 248C143.457 250.632 147.146 247.472 146.092 245.367C143.457 240.63 140.822 235.365 138.714 230.1C143.457 223.782 156.633 217.992 159.268 213.253C161.896 205.354 157.151 199.563 149.773 202.721Z" fill="#F8BBD0" fill-opacity="1.000000" fill-rule="evenodd"/>
		<path id="Path" d="M266.671 166.543C191.574 176.695 186.838 240.985 189.544 245.047C220.665 249.109 253.139 241.663 297.79 193.615C321.468 167.899 334.325 132.031 335 130C322.823 144.886 291.702 163.159 266.671 166.543Z" fill="#03ACF2" fill-opacity="1.000000" fill-rule="evenodd"/>
	</g>
</svg>
